<svg id="Capa_1" enable-background="new 0 0 512 512" height="512" viewBox="0 0 512 512" width="512" xmlns="http://www.w3.org/2000/svg"><g><g><path d="m504.5 65.516v190.484h-248.5v-248.5h190.484c32.041 0 58.016 25.975 58.016 58.016z" fill="#dd5790"/><path d="m7.5 446.484v-190.484h248.5v248.5h-190.484c-32.041 0-58.016-25.975-58.016-58.016z" fill="#365e7d"/><path d="m446.484 504.5h-190.484v-248.5h248.5v190.484c0 32.041-25.975 58.016-58.016 58.016z" fill="#8993da"/><path d="m65.516 7.5h190.484v248.5h-248.5v-190.484c0-32.041 25.975-58.016 58.016-58.016z" fill="#b3e59f"/><g><path d="m149.1 36.388h-38.592c-32.622 0-57.663 28.922-52.994 61.208l8.308 57.452h127.963l8.308-57.452c4.67-32.285-20.371-61.208-52.993-61.208z" fill="#365e7d"/><path d="m108.287 97.597 8.31 57.449h-50.78l-8.303-57.449c-4.67-32.287 20.365-61.207 52.988-61.207h38.591c2.062 0 4.095.119 6.094.344-29.579 3.33-51.276 30.617-46.9 60.863z" fill="#2b4d66"/><path d="m190.791 173.421h-121.974c-9.795 0-17.735-7.94-17.735-17.735 0-9.795 7.94-17.735 17.735-17.735h121.975c9.795 0 17.735 7.94 17.735 17.735-.001 9.795-7.941 17.735-17.736 17.735z" fill="#a55e4d"/><path d="m181.149 108.217v70.83c0 28.31-22.643 51.777-50.953 51.988-28.536.213-51.736-22.857-51.736-51.343v-71.474h5.762c11.155 0 20.198-9.043 20.198-20.198 12.82 16.629 37.905 16.629 50.725 0 0 11.155 9.043 20.198 20.198 20.198h5.762" fill="#c18678"/><path d="m146.091 228.36c-4.993 1.697-10.337 2.637-15.898 2.679-28.535.21-51.733-22.855-51.733-51.347v-71.474h5.757c11.157 0 20.204-9.039 20.204-20.197 1.978 2.567 4.257 4.741 6.732 6.515v85.156c0 22.623 14.629 41.824 34.938 48.668z" fill="#b46e59"/></g><g><path d="m430.196 52.405c0 12.349-10.014 22.357-22.357 22.357h-50.92c-6.171 0-11.76-2.504-15.8-6.55-4.046-4.039-6.55-9.636-6.55-15.807 0-1.08.077-2.139.224-3.177 1.543-10.842 10.863-19.173 22.125-19.173h50.92c6.171 0 11.76 2.504 15.807 6.543 3.338 3.338 5.631 7.735 6.326 12.637.148 1.038.225 2.09.225 3.17z" fill="#ffd064"/><path d="m371.643 68.215c4.046 4.046 9.636 6.55 15.807 6.55h-30.534c-6.171 0-11.76-2.504-15.807-6.55-4.039-4.039-6.543-9.636-6.543-15.807 0-12.342 10.007-22.35 22.35-22.35h30.534c-12.342 0-22.357 10.007-22.357 22.35.001 6.172 2.504 11.768 6.55 15.807z" fill="#ffc250"/><path d="m430.196 52.405c0 12.349-10.014 22.357-22.357 22.357h-50.92c-6.171 0-11.76-2.504-15.8-6.55-4.046-4.039-6.55-9.636-6.55-15.807 0-1.08.077-2.139.224-3.177 5.119-1.55 10.547-2.384 16.164-2.384h62.843c5.624 0 11.059.835 16.171 2.391.148 1.038.225 2.09.225 3.17z" fill="#ffc250"/><path d="m413.798 59.467h-62.836c-30.742 0-55.664 24.921-55.664 55.664v11.722c0 30.742 24.921 55.664 55.664 55.664h62.836c30.742 0 55.664-24.921 55.664-55.664v-11.722c0-30.742-24.922-55.664-55.664-55.664z" fill="#ffd064"/><path d="m396.542 182.517h-45.583c-30.737 0-55.66-24.916-55.66-55.66v-11.725c0-30.737 24.923-55.66 55.66-55.66h45.583c-30.737 0-55.66 24.923-55.66 55.66v11.725c-.001 30.743 24.923 55.66 55.66 55.66z" fill="#ffc250"/><path d="m443.806 177.925h-121.975c-9.795 0-17.735-7.94-17.735-17.735 0-9.795 7.94-17.735 17.735-17.735h121.975c9.795 0 17.735 7.94 17.735 17.735-.001 9.795-7.941 17.735-17.735 17.735z" fill="#ffcbbe"/><path d="m331.474 131.639v52.557c0 28.486 23.201 51.556 51.736 51.343 28.31-.211 50.953-23.678 50.953-51.988v-51.913-.131h-2.412c-21.938 0-41.515-13.769-48.932-34.415-7.417 20.646-26.995 34.415-48.932 34.415h-2.412v.132z" fill="#ffece4"/><path d="m397.955 233.229c-4.663 1.466-9.614 2.272-14.748 2.307-28.535.217-51.733-22.855-51.733-51.34v-52.687h2.412c10.154 0 19.811-2.952 27.981-8.177v60.864c0 23.044 15.183 42.539 36.088 49.033z" fill="#ffddce"/></g><g><path d="m428.529 297.252c-8.256 0-15.464 4.466-19.354 11.11-9.106-14.236-25.044-23.682-43.197-23.682-28.308 0-51.256 22.948-51.256 51.256v59.476h91.39v12.572h44.834v-88.315c0-12.38-10.036-22.417-22.417-22.417z" fill="#365e7d"/><path d="m388.386 289.83c-5.147 2.508-9.815 5.86-13.821 9.866-9.277 9.277-15.014 22.088-15.014 36.243v59.472h-44.83v-59.472c0-14.156 5.736-26.966 15.013-36.243 9.27-9.277 22.088-15.014 36.243-15.014 8.035.001 15.64 1.855 22.409 5.148z" fill="#2b4d66"/><path d="m443.367 421.712h-121.974c-9.795 0-17.735-7.94-17.735-17.735 0-9.795 7.94-17.735 17.735-17.735h121.975c9.795 0 17.735 7.94 17.735 17.735-.001 9.795-7.941 17.735-17.736 17.735z" fill="#ffcbbe"/><path d="m433.725 363.522v63.817c0 28.31-22.643 51.777-50.953 51.988-28.536.213-51.736-22.857-51.736-51.343v-64.462c0-.141.001-.282.002-.423.13-16.114 17.567-26.005 31.662-18.194 5.832 3.232 12.542 5.072 19.681 5.072 15.977 0 29.806-9.215 36.445-22.623 9.207 9.276 14.899 22.055 14.899 36.168z" fill="#ffece4"/><path d="m397.473 477.034c-4.649 1.458-9.581 2.252-14.699 2.293-28.535.214-51.738-22.857-51.738-51.344v-64.883c.124-15.604 16.482-25.372 30.318-18.885v83.769c-.001 23.057 15.196 42.557 36.119 49.05z" fill="#ffddce"/></g><g><path d="m141.138 284.68h-22.668c-32.437 0-58.732 26.295-58.732 58.732v64.57h140.132v-64.57c0-32.437-26.295-58.732-58.732-58.732z" fill="#a2847d"/><path d="m154.488 286.201c-26.003 6.052-45.38 29.369-45.38 57.21v64.573h-49.37v-64.573c0-32.434 26.291-58.732 58.732-58.732h22.665c4.594.001 9.061.527 13.353 1.522z" fill="#8e736e"/><path d="m190.791 421.709h-121.974c-9.795 0-17.735-7.94-17.735-17.735 0-9.795 7.94-17.735 17.735-17.735h121.975c9.795 0 17.735 7.94 17.735 17.735-.001 9.795-7.941 17.735-17.736 17.735z" fill="#ffcbbe"/><path d="m181.149 356.506v70.83c0 28.31-22.643 51.777-50.953 51.988-28.536.213-51.736-22.857-51.736-51.343v-71.474c0-.141.001-25.811.002-25.952-.001-.001 39.732 46.17 102.687 25.951z" fill="#ffece4"/><path d="m145.102 476.979c-4.706 1.487-9.713 2.307-14.909 2.349-28.535.21-51.733-22.855-51.733-51.347v-97.421s11.038 12.826 30.695 21.999v75.422c-.001 23.001 15.112 42.455 35.947 48.998z" fill="#ffddce"/></g></g><g><path d="m446.48 0h-380.96c-36.128 0-65.52 29.392-65.52 65.52v380.96c0 36.128 29.392 65.52 65.52 65.52h12.93c4.143 0 7.5-3.358 7.5-7.5s-3.357-7.5-7.5-7.5h-12.93c-27.857 0-50.52-22.663-50.52-50.52v-182.318h233.5v232.838h-140.05c-4.143 0-7.5 3.358-7.5 7.5s3.357 7.5 7.5 7.5h338.03c36.128 0 65.52-29.392 65.52-65.52v-380.96c0-36.128-29.392-65.52-65.52-65.52zm50.52 65.52v183.642h-233.5v-234.162h182.98c27.857 0 50.52 22.663 50.52 50.52zm-482 183.642v-183.642c0-27.857 22.663-50.52 50.52-50.52h182.98v234.162zm431.48 247.838h-182.98v-232.838h233.5v182.318c0 27.857-22.663 50.52-50.52 50.52z"/><path d="m204.345 134.419 5.169-35.748c2.538-17.543-2.661-35.291-14.263-48.692-11.603-13.402-28.423-21.088-46.148-21.088h-38.592c-17.729 0-34.552 7.687-46.155 21.09-11.603 13.401-16.801 31.148-14.263 48.69l5.167 35.727c-1.533.98-2.975 2.127-4.292 3.444-4.764 4.764-7.387 11.103-7.387 17.849 0 13.91 11.321 25.226 25.236 25.226h2.173c.312 15.34 6.438 29.697 17.362 40.54 11.107 11.025 25.811 17.08 41.447 17.08.15 0 .302 0 .452-.001 31.58-.236 57.369-25.913 58.351-57.618h2.19c6.746 0 13.084-2.624 17.849-7.388 4.764-4.764 7.388-11.1 7.388-17.838-.001-8.931-4.667-16.786-11.684-21.273zm-145.765 21.271c0-2.74 1.063-5.312 2.994-7.242s4.503-2.994 7.242-2.994h2.144v20.462h-2.144c-5.644.001-10.236-4.587-10.236-10.226zm115.068 23.357c0 24.352-19.519 44.309-43.509 44.488-.113.001-.225.001-.338.001-11.651 0-22.607-4.512-30.883-12.726-8.356-8.294-12.959-19.346-12.959-31.119v-64.028c9.577-.596 17.851-6.08 22.35-13.981 6.298 4.086 13.698 6.309 21.473 6.309s15.175-2.223 21.473-6.309c4.506 7.914 12.798 13.402 22.394 13.983v63.382zm7.456-78.33h-5.763c-7.001 0-12.697-5.696-12.697-12.698 0-3.21-2.043-6.064-5.081-7.099-3.037-1.034-6.398-.022-8.358 2.52-4.68 6.07-11.759 9.551-19.423 9.551s-14.743-3.481-19.422-9.551c-1.961-2.542-5.322-3.554-8.359-2.52-3.038 1.035-5.081 3.889-5.081 7.099 0 7.001-5.696 12.698-12.698 12.698h-5.762c-4.143 0-7.5 3.358-7.5 7.5v22.237h-1.115l-4.907-33.93c-1.914-13.232 2.007-26.618 10.757-36.726 8.753-10.109 21.442-15.908 34.815-15.908h38.592c13.369 0 26.056 5.797 34.808 15.906 8.751 10.108 12.672 23.495 10.758 36.728l-4.906 33.93h-1.114v-22.237c0-4.142-3.357-7.5-7.5-7.5-.017 0-.03 0-.044 0zm16.929 62.205c-1.931 1.931-4.502 2.994-7.241 2.994h-2.144v-20.462h2.144c5.645 0 10.236 4.592 10.236 10.236 0 2.733-1.063 5.301-2.995 7.232z"/><path d="m143.609 165.051c-7.609 7.612-19.997 7.613-27.61 0-2.93-2.929-7.678-2.929-10.607 0s-2.929 7.678 0 10.606c6.521 6.521 15.191 10.112 24.413 10.112 9.221 0 17.891-3.591 24.412-10.112 2.929-2.929 2.929-7.678 0-10.606-2.93-2.929-7.678-2.929-10.608 0z"/><path d="m116.406 151.819c4.143 0 7.5-3.358 7.5-7.5v-10.372c0-4.142-3.357-7.5-7.5-7.5s-7.5 3.358-7.5 7.5v10.372c0 4.142 3.358 7.5 7.5 7.5z"/><path d="m143.201 151.819c4.143 0 7.5-3.358 7.5-7.5v-10.372c0-4.142-3.357-7.5-7.5-7.5s-7.5 3.358-7.5 7.5v10.372c0 4.142 3.358 7.5 7.5 7.5z"/><path d="m296.622 159.052c-.017.379-.028.76-.028 1.142 0 13.91 11.321 25.226 25.236 25.226h2.173c.312 15.34 6.438 29.697 17.362 40.54 11.108 11.025 25.812 17.08 41.448 17.08.15 0 .302 0 .452-.001 31.581-.236 57.369-25.914 58.351-57.619h2.189c6.746 0 13.086-2.624 17.85-7.388s7.387-11.099 7.387-17.838c0-.844-.043-1.678-.125-2.502 5.266-9.385 8.043-19.985 8.043-30.843v-11.72c0-5.188-.631-10.337-1.875-15.303-1.007-4.018-5.078-6.456-9.099-5.452-4.018 1.007-6.459 5.08-5.452 9.098.946 3.774 1.426 7.696 1.426 11.657v11.72c0 4.756-.703 9.443-2.054 13.927-4.373-3.632-9.985-5.819-16.1-5.819h-2.143v-3.451c0-4.142-3.357-7.5-7.5-7.5h-2.412c-18.718 0-35.546-11.835-41.874-29.451-1.07-2.978-3.895-4.964-7.059-4.964s-5.988 1.986-7.059 4.964c-6.328 17.615-23.156 29.451-41.874 29.451h-2.412c-4.143 0-7.5 3.358-7.5 7.5v3.451h-2.144c-6.263 0-12.173 2.265-16.8 6.401-1.468-4.656-2.23-9.539-2.23-14.509v-11.72c0-26.555 21.604-48.16 48.16-48.16h62.84c12.805 0 24.867 4.976 33.965 14.012 2.938 2.917 7.687 2.903 10.606-.037 2.919-2.939 2.902-7.688-.036-10.607-6.09-6.048-13.198-10.699-20.928-13.812.187-1.356.29-2.73.29-4.121 0-7.972-3.106-15.469-8.751-21.115-5.644-5.633-13.139-8.735-21.105-8.735h-50.92c-16.459 0-29.85 13.391-29.85 29.85 0 1.403.104 2.788.294 4.155-23.169 9.368-39.564 32.083-39.564 58.57v11.72c0 11.409 3.046 22.482 8.822 32.203zm147.184-9.094c5.645 0 10.236 4.592 10.236 10.236 0 2.733-1.063 5.302-2.994 7.232-1.93 1.931-4.502 2.994-7.242 2.994h-2.143v-20.462zm-104.832-11.169c17.789-1.534 33.851-11.034 43.845-25.453 9.994 14.418 26.056 23.918 43.845 25.453v44.763c0 24.352-19.519 44.309-43.509 44.488-.113.001-.225.001-.337.001-11.652 0-22.609-4.512-30.885-12.726-8.356-8.294-12.959-19.346-12.959-31.119zm3.096-86.384c0-8.188 6.661-14.85 14.85-14.85h50.92c3.966 0 7.697 1.545 10.503 4.346 2.808 2.808 4.354 6.538 4.354 10.503 0 .064-.009.127-.01.192-2.921-.409-5.887-.627-8.887-.627h-62.84c-3.015 0-5.976.226-8.879.636-.001-.066-.011-.132-.011-.2zm-27.481 100.547c1.931-1.931 4.502-2.994 7.241-2.994h2.144v20.462h-2.144c-5.645 0-10.236-4.587-10.236-10.226 0-2.738 1.063-5.311 2.995-7.242z"/><path d="m382.818 200.792c9.222 0 17.892-3.591 24.412-10.112 2.929-2.929 2.929-7.678-.001-10.606-2.928-2.93-7.677-2.929-10.606 0-3.687 3.688-8.59 5.718-13.805 5.718-5.216 0-10.118-2.031-13.807-5.718-2.928-2.93-7.677-2.929-10.606 0s-2.929 7.678.001 10.606c6.521 6.521 15.191 10.112 24.412 10.112z"/><path d="m369.421 166.843c4.143 0 7.5-3.358 7.5-7.5v-10.373c0-4.142-3.357-7.5-7.5-7.5s-7.5 3.358-7.5 7.5v10.373c0 4.142 3.357 7.5 7.5 7.5z"/><path d="m396.216 166.843c4.143 0 7.5-3.358 7.5-7.5v-10.373c0-4.142-3.357-7.5-7.5-7.5s-7.5 3.358-7.5 7.5v10.373c0 4.142 3.357 7.5 7.5 7.5z"/><path d="m458.448 383.759v-64.089c0-16.495-13.423-29.914-29.922-29.914-6.987 0-13.676 2.477-18.952 6.793-11.049-12.269-26.756-19.368-43.6-19.368-15.694 0-30.45 6.112-41.547 17.209-11.099 11.097-17.21 25.852-17.21 41.547v47.156c-1.304.888-2.535 1.901-3.675 3.041-4.764 4.764-7.387 11.103-7.387 17.849 0 13.91 11.321 25.226 25.236 25.226h2.172c.312 15.34 6.438 29.697 17.362 40.54 11.107 11.025 25.812 17.08 41.448 17.08.15 0 .302 0 .452-.001 31.58-.236 57.369-25.913 58.351-57.618h2.19c6.746 0 13.084-2.624 17.849-7.388 4.764-4.764 7.388-11.099 7.388-17.838.001-8.269-3.994-15.619-10.155-20.225zm-147.292 20.223c0-2.74 1.063-5.312 2.994-7.242s4.503-2.994 7.242-2.994h2.144v20.462h-2.143c-5.645 0-10.237-4.587-10.237-10.226zm12.381-40.934v15.697h-1.319v-42.809c0-11.688 4.552-22.676 12.816-30.94 8.264-8.265 19.252-12.816 30.94-12.816 14.996 0 28.785 7.561 36.885 20.226 1.38 2.158 3.764 3.459 6.317 3.459.051 0 .101 0 .15-.001 2.611-.052 5.007-1.458 6.325-3.712 2.668-4.562 7.601-7.396 12.874-7.396 8.228 0 14.922 6.69 14.922 14.914v59.078c-.027 0-.053-.002-.08-.002h-2.144v-15.224c0-15.635-6.064-30.356-17.076-41.452-1.704-1.718-4.132-2.507-6.525-2.12-2.39.388-4.445 1.906-5.52 4.076-5.635 11.38-17.024 18.45-29.724 18.45-5.62 0-11.168-1.429-16.045-4.131-9.035-5.007-19.745-4.895-28.648.303-8.777 5.123-14.066 14.241-14.148 24.4zm102.688 64.29c0 24.352-19.519 44.309-43.509 44.488-11.767.085-22.865-4.43-31.222-12.725s-12.959-19.346-12.959-31.118v-64.462l.002-.362c.039-4.878 2.485-9.091 6.711-11.558 2.186-1.275 4.599-1.915 7.018-1.915 2.326 0 4.659.592 6.798 1.777 7.097 3.933 15.159 6.011 23.316 6.011 14.63 0 28.064-6.462 37.078-17.384 4.406 6.946 6.767 15.01 6.767 23.43zm24.384-16.124c-1.931 1.931-4.502 2.994-7.241 2.994h-2.144v-20.462h2.144c5.645 0 10.236 4.592 10.236 10.236 0 2.732-1.063 5.301-2.995 7.232z"/><path d="m396.186 413.342c-3.688 3.688-8.59 5.719-13.806 5.719-5.215 0-10.117-2.031-13.805-5.719-2.929-2.928-7.678-2.929-10.606 0-2.93 2.929-2.93 7.678-.001 10.607 6.521 6.521 15.19 10.112 24.412 10.112s17.892-3.591 24.413-10.112c2.929-2.929 2.929-7.678 0-10.606-2.93-2.929-7.678-2.929-10.607-.001z"/><path d="m368.982 400.111c4.143 0 7.5-3.358 7.5-7.5v-10.372c0-4.142-3.357-7.5-7.5-7.5s-7.5 3.358-7.5 7.5v10.372c0 4.142 3.358 7.5 7.5 7.5z"/><path d="m395.777 400.111c4.143 0 7.5-3.358 7.5-7.5v-10.372c0-4.142-3.357-7.5-7.5-7.5s-7.5 3.358-7.5 7.5v10.372c0 4.142 3.358 7.5 7.5 7.5z"/><path d="m141.136 277.179h-22.665c-36.521 0-66.231 29.711-66.231 66.231v41.54c-.434.379-.861.769-1.272 1.18-4.764 4.764-7.387 11.103-7.387 17.849 0 13.91 11.321 25.226 25.236 25.226h2.173c.312 15.34 6.438 29.697 17.362 40.54 11.107 11.025 25.811 17.08 41.447 17.08.15 0 .302 0 .452-.001 31.58-.236 57.369-25.913 58.351-57.618h2.19c6.746 0 13.084-2.624 17.849-7.388 4.764-4.764 7.388-11.099 7.388-17.838 0-7.574-3.359-14.375-8.66-19.005v-41.564c-.001-36.52-29.713-66.232-66.233-66.232zm-82.556 126.8c0-2.74 1.063-5.312 2.994-7.242s4.503-2.994 7.242-2.994h2.144v20.462h-2.144c-5.644 0-10.236-4.587-10.236-10.226zm115.068 23.356c0 24.352-19.518 44.309-43.509 44.488-.113.001-.225.001-.337.001-11.651 0-22.608-4.512-30.884-12.726-8.356-8.294-12.959-19.346-12.959-31.119v-71.475c0-.057 0-4.227 0-9.205 4.533 3.413 10.179 7.125 16.849 10.502 15.829 8.016 40.421 15.498 70.84 8.537zm-63.54-82.651c-16.44-8.199-25.882-18.93-25.963-19.022-2.039-2.369-5.329-3.227-8.27-2.148-2.935 1.077-4.894 3.862-4.915 6.988-.001.111-.001 8.86-.001 26.004v22.237h-2.144c-.529 0-1.054.022-1.577.054v-35.386c0-28.249 22.982-51.231 51.231-51.231h22.665c28.25 0 51.232 22.982 51.232 51.231v35.386c-.522-.032-1.046-.054-1.576-.054h-2.144v-22.237c0-2.396-1.146-4.648-3.081-6.06-1.937-1.412-4.43-1.814-6.712-1.081-23.957 7.695-47.086 6.12-68.745-4.681zm87.925 66.527c-1.931 1.931-4.502 2.994-7.241 2.994h-2.144v-20.462h2.144c5.645 0 10.236 4.592 10.236 10.236 0 2.732-1.063 5.301-2.995 7.232z"/><path d="m143.609 413.339c-7.609 7.612-19.997 7.613-27.61 0-2.93-2.929-7.678-2.929-10.607 0s-2.929 7.678 0 10.606c6.521 6.521 15.191 10.112 24.413 10.112 9.221 0 17.891-3.591 24.412-10.112 2.929-2.929 2.929-7.678 0-10.606-2.93-2.928-7.678-2.928-10.608 0z"/><path d="m116.406 400.108c4.143 0 7.5-3.358 7.5-7.5v-10.372c0-4.142-3.357-7.5-7.5-7.5s-7.5 3.358-7.5 7.5v10.372c0 4.142 3.358 7.5 7.5 7.5z"/><path d="m143.201 374.736c-4.143 0-7.5 3.358-7.5 7.5v10.372c0 4.142 3.357 7.5 7.5 7.5s7.5-3.358 7.5-7.5v-10.372c0-4.142-3.357-7.5-7.5-7.5z"/></g></g></svg>